<svg xmlns="http://www.w3.org/2000/svg" width="1100" height="720" viewBox="0 0 1100 720">
<defs><marker id="arrow" viewBox="0 0 10 10" refX="9" refY="5" markerWidth="7" markerHeight="7" orient="auto-start-reverse"><path d="M0,0 L10,5 L0,10 z" fill="#94a3b8"/></marker></defs>
<rect width="1100" height="720" fill="#f8fafc"/>
<rect x="0" y="0" width="1100" height="52" fill="#0a1f4d"/>
<text x="26" y="26" font-family="'Malgun Gothic','Apple SD Gothic Neo','Noto Sans KR',sans-serif" font-size="18" font-weight="800" fill="#ffffff">Market Twin — 엔진 전체 연결도 (Master)</text>
<text x="26" y="43" font-family="'Malgun Gothic','Apple SD Gothic Neo','Noto Sans KR',sans-serif" font-size="11" fill="#93c5fd">9개 엔진 · 함수 단위 데이터 흐름</text>
<text x="1080" y="708" font-family="'Cascadia Code','Consolas','D2Coding',monospace" font-size="9" fill="#cbd5e1" text-anchor="end">Market Twin · function-level architecture</text>
<rect x="460" y="70" width="180" height="40" rx="9" fill="#ffffff" stroke="#0a1f4d" stroke-width="2" /><rect x="460" y="70" width="180" height="22" rx="9" fill="#0a1f4d"/><rect x="460" y="81" width="180" height="11" fill="#0a1f4d"/><text x="470" y="85.5" font-family="'Malgun Gothic','Apple SD Gothic Neo','Noto Sans KR',sans-serif" font-size="11.5" font-weight="700" fill="#ffffff">사용자 입력</text><text x="470" y="108" font-family="'Cascadia Code','Consolas','D2Coding',monospace" font-size="10" fill="#1e293b">projectInput (제품·가격·시장)</text><rect x="120" y="150" width="860" height="120" rx="9" fill="#ffffff" stroke="#1d4ed8" stroke-width="2" /><rect x="120" y="150" width="860" height="22" rx="9" fill="#1d4ed8"/><rect x="120" y="161" width="860" height="11" fill="#1d4ed8"/><text x="130" y="165.5" font-family="'Malgun Gothic','Apple SD Gothic Neo','Noto Sans KR',sans-serif" font-size="11.5" font-weight="700" fill="#ffffff">② 앙상블 오케스트레이터  (orchestrator.ts)</text><text x="130" y="188" font-family="'Cascadia Code','Consolas','D2Coding',monospace" font-size="10" fill="#1e293b">ƒ runEnsemble(context) — 티어 선택(3~50 sim) · 비용 서킷브레이커</text><text x="130" y="202.5" font-family="'Cascadia Code','Consolas','D2Coding',monospace" font-size="10" fill="#1e293b">ƒ prefetchSimulationContext() — 외부데이터 1회 프리페치(전 sim 공유)</text><text x="130" y="217" font-family="'Cascadia Code','Consolas','D2Coding',monospace" font-size="10" fill="#1e293b">ƒ aggregateEnsemble(snapshots) — N개 결과 집계·신뢰도·합의</text><rect x="120" y="320" width="250" height="96" rx="9" fill="#ffffff" stroke="#0891b2" stroke-width="2" /><rect x="120" y="320" width="250" height="22" rx="9" fill="#0891b2"/><rect x="120" y="331" width="250" height="11" fill="#0891b2"/><text x="130" y="335.5" font-family="'Malgun Gothic','Apple SD Gothic Neo','Noto Sans KR',sans-serif" font-size="11.5" font-weight="700" fill="#ffffff">③ 시장조사/데이터 인제스천</text><text x="130" y="358" font-family="'Malgun Gothic','Apple SD Gothic Neo','Noto Sans KR',sans-serif" font-size="10.5" fill="#475569">tavily · comtrade · world-bank</text><text x="130" y="372.5" font-family="'Malgun Gothic','Apple SD Gothic Neo','Noto Sans KR',sans-serif" font-size="10.5" fill="#475569">kotra · dart · 관세청 · mfds</text><text x="130" y="387" font-family="'Cascadia Code','Consolas','D2Coding',monospace" font-size="10" fill="#1e293b">→ 그라운딩 블록(환각 차단)</text><rect x="120" y="440" width="250" height="80" rx="9" fill="#ffffff" stroke="#0d9488" stroke-width="2" /><rect x="120" y="440" width="250" height="22" rx="9" fill="#0d9488"/><rect x="120" y="451" width="250" height="11" fill="#0d9488"/><text x="130" y="455.5" font-family="'Malgun Gothic','Apple SD Gothic Neo','Noto Sans KR',sans-serif" font-size="11.5" font-weight="700" fill="#ffffff">④ 레퍼런스 데이터</text><text x="130" y="478" font-family="'Malgun Gothic','Apple SD Gothic Neo','Noto Sans KR',sans-serif" font-size="10.5" fill="#475569">country_stats / profession_income</text><text x="130" y="492.5" font-family="'Malgun Gothic','Apple SD Gothic Neo','Noto Sans KR',sans-serif" font-size="10.5" fill="#475569">consumer_norms / competitors</text><rect x="425" y="320" width="250" height="200" rx="9" fill="#ffffff" stroke="#2563eb" stroke-width="2" /><rect x="425" y="320" width="250" height="22" rx="9" fill="#2563eb"/><rect x="425" y="331" width="250" height="11" fill="#2563eb"/><text x="435" y="335.5" font-family="'Malgun Gothic','Apple SD Gothic Neo','Noto Sans KR',sans-serif" font-size="11.5" font-weight="700" fill="#ffffff">① 시뮬레이션 엔진 ×N (runner.ts)</text><text x="435" y="358" font-family="'Cascadia Code','Consolas','D2Coding',monospace" font-size="10" fill="#1e293b">ƒ runSimulation(opts)</text><text x="435" y="372.5" font-family="'Cascadia Code','Consolas','D2Coding',monospace" font-size="10" fill="#1e293b">S0 evaluateRegulatory()</text><text x="435" y="387" font-family="'Cascadia Code','Consolas','D2Coding',monospace" font-size="10" fill="#1e293b">S1 personas (풀+생성+반응)</text><text x="435" y="401.5" font-family="'Cascadia Code','Consolas','D2Coding',monospace" font-size="10" fill="#1e293b">S2 aggregateCountryScores() ×5</text><text x="435" y="416" font-family="'Cascadia Code','Consolas','D2Coding',monospace" font-size="10" fill="#1e293b">S3 computePricingRange()+가격 ×5</text><text x="435" y="430.5" font-family="'Malgun Gothic','Apple SD Gothic Neo','Noto Sans KR',sans-serif" font-size="10.5" fill="#475569">S4 synthesis + critique</text><rect x="730" y="320" width="250" height="96" rx="9" fill="#ffffff" stroke="#7c3aed" stroke-width="2" /><rect x="730" y="320" width="250" height="22" rx="9" fill="#7c3aed"/><rect x="730" y="331" width="250" height="11" fill="#7c3aed"/><text x="740" y="335.5" font-family="'Malgun Gothic','Apple SD Gothic Neo','Noto Sans KR',sans-serif" font-size="11.5" font-weight="700" fill="#ffffff">⑤ LLM 멀티프로바이더</text><text x="740" y="358" font-family="'Cascadia Code','Consolas','D2Coding',monospace" font-size="10" fill="#1e293b">ƒ getLLMProvider(stage,category)</text><text x="740" y="372.5" font-family="'Malgun Gothic','Apple SD Gothic Neo','Noto Sans KR',sans-serif" font-size="10.5" fill="#475569">withProviderFallback / Usage</text><text x="740" y="387" font-family="'Malgun Gothic','Apple SD Gothic Neo','Noto Sans KR',sans-serif" font-size="10.5" fill="#475569">anthropic·openai·gemini·deepseek·xai</text><rect x="730" y="440" width="250" height="80" rx="9" fill="#ffffff" stroke="#dc2626" stroke-width="2" /><rect x="730" y="440" width="250" height="22" rx="9" fill="#dc2626"/><rect x="730" y="451" width="250" height="11" fill="#dc2626"/><text x="740" y="455.5" font-family="'Malgun Gothic','Apple SD Gothic Neo','Noto Sans KR',sans-serif" font-size="11.5" font-weight="700" fill="#ffffff">⑧ 품질 감사</text><text x="740" y="478" font-family="'Cascadia Code','Consolas','D2Coding',monospace" font-size="10" fill="#1e293b">ƒ auditQuality(result)</text><text x="740" y="492.5" font-family="'Malgun Gothic','Apple SD Gothic Neo','Noto Sans KR',sans-serif" font-size="10.5" fill="#475569">confidenceScore · quarantined</text><rect x="425" y="560" width="250" height="76" rx="9" fill="#ffffff" stroke="#ea580c" stroke-width="2" /><rect x="425" y="560" width="250" height="22" rx="9" fill="#ea580c"/><rect x="425" y="571" width="250" height="11" fill="#ea580c"/><text x="435" y="575.5" font-family="'Malgun Gothic','Apple SD Gothic Neo','Noto Sans KR',sans-serif" font-size="11.5" font-weight="700" fill="#ffffff">⑥ 의사결정/CAC·가격</text><text x="435" y="598" font-family="'Cascadia Code','Consolas','D2Coding',monospace" font-size="10" fill="#1e293b">ƒ cacFromPersonas() · 채널비용</text><text x="435" y="612.5" font-family="'Malgun Gothic','Apple SD Gothic Neo','Noto Sans KR',sans-serif" font-size="10.5" fill="#475569">computePricingRange / 스트레스</text><rect x="730" y="560" width="250" height="76" rx="9" fill="#ffffff" stroke="#475569" stroke-width="2" /><rect x="730" y="560" width="250" height="22" rx="9" fill="#475569"/><rect x="730" y="571" width="250" height="11" fill="#475569"/><text x="740" y="575.5" font-family="'Malgun Gothic','Apple SD Gothic Neo','Noto Sans KR',sans-serif" font-size="11.5" font-weight="700" fill="#ffffff">⑨ 리포트 / PDF</text><text x="740" y="598" font-family="'Malgun Gothic','Apple SD Gothic Neo','Noto Sans KR',sans-serif" font-size="10.5" fill="#475569">ensemble-pdf / validation-pdf</text><text x="740" y="612.5" font-family="'Malgun Gothic','Apple SD Gothic Neo','Noto Sans KR',sans-serif" font-size="10.5" fill="#475569">Executive · Detailed · Hypothesis</text><rect x="120" y="560" width="250" height="76" rx="9" fill="#ffffff" stroke="#16a34a" stroke-width="2" /><rect x="120" y="560" width="250" height="22" rx="9" fill="#16a34a"/><rect x="120" y="571" width="250" height="11" fill="#16a34a"/><text x="130" y="575.5" font-family="'Malgun Gothic','Apple SD Gothic Neo','Noto Sans KR',sans-serif" font-size="11.5" font-weight="700" fill="#ffffff">⑦ 검증 / 백테스트 (오프라인)</text><text x="130" y="598" font-family="'Cascadia Code','Consolas','D2Coding',monospace" font-size="10" fill="#1e293b">ƒ score(result, truth)</text><text x="130" y="612.5" font-family="'Malgun Gothic','Apple SD Gothic Neo','Noto Sans KR',sans-serif" font-size="10.5" fill="#475569">top3Hit · Spearman ρ · 캘리브레이션</text><path d="M550,110 L550,150" fill="none" stroke="#94a3b8" stroke-width="1.6"  marker-end="url(#arrow)"/><path d="M550,270 L550,295 L245,295 L245,320" fill="none" stroke="#94a3b8" stroke-width="1.6"  marker-end="url(#arrow)"/><rect x="381.5" y="287" width="32" height="15" rx="3" fill="#ffffff" opacity="0.92"/><text x="397.5" y="298" font-family="'Malgun Gothic','Apple SD Gothic Neo','Noto Sans KR',sans-serif" font-size="9.5" fill="#64748b" text-anchor="middle">프리페치</text><path d="M550,270 L550,295 L550,295 L550,320" fill="none" stroke="#94a3b8" stroke-width="1.6"  marker-end="url(#arrow)"/><rect x="528" y="287" width="44" height="15" rx="3" fill="#ffffff" opacity="0.92"/><text x="550" y="298" font-family="'Malgun Gothic','Apple SD Gothic Neo','Noto Sans KR',sans-serif" font-size="9.5" fill="#64748b" text-anchor="middle">N개 팬아웃</text><path d="M550,270 L550,295 L855,295 L855,320" fill="none" stroke="#94a3b8" stroke-width="1.6"  marker-end="url(#arrow)"/><path d="M245,416 L245,440" fill="none" stroke="#94a3b8" stroke-width="1.6" stroke-dasharray="5 4" marker-end="url(#arrow)"/><path d="M370,480 L425,420" fill="none" stroke="#94a3b8" stroke-width="1.6"  marker-end="url(#arrow)"/><rect x="381.5" y="442" width="32" height="15" rx="3" fill="#ffffff" opacity="0.92"/><text x="397.5" y="453" font-family="'Malgun Gothic','Apple SD Gothic Neo','Noto Sans KR',sans-serif" font-size="9.5" fill="#64748b" text-anchor="middle">그라운딩</text><path d="M855,416 L765,416 L765,420 L675,420" fill="none" stroke="#94a3b8" stroke-width="1.6" stroke-dasharray="5 4" marker-end="url(#arrow)"/><rect x="755" y="410" width="20" height="15" rx="3" fill="#ffffff" opacity="0.92"/><text x="765" y="421" font-family="'Malgun Gothic','Apple SD Gothic Neo','Noto Sans KR',sans-serif" font-size="9.5" fill="#64748b" text-anchor="middle">호출</text><path d="M550,520 L550,560" fill="none" stroke="#94a3b8" stroke-width="1.6"  marker-end="url(#arrow)"/><path d="M550,520 L550,480 L855,480 L855,440" fill="none" stroke="#94a3b8" stroke-width="1.6" stroke-dasharray="5 4" marker-end="url(#arrow)"/><path d="M675,598 L730,598" fill="none" stroke="#94a3b8" stroke-width="1.6"  marker-end="url(#arrow)"/><path d="M855,520 L855,540 L855,540 L855,560" fill="none" stroke="#94a3b8" stroke-width="1.6" stroke-dasharray="5 4" marker-end="url(#arrow)"/><rect x="820" y="62" width="260" height="60" rx="6" fill="#f59e0b11" stroke="#f59e0b" stroke-width="1" stroke-dasharray="3 3"/><text x="829" y="79" font-family="'Malgun Gothic','Apple SD Gothic Neo','Noto Sans KR',sans-serif" font-size="9.8" fill="#7c5b09">ⓘ 핵심 패턴</text><text x="829" y="92" font-family="'Malgun Gothic','Apple SD Gothic Neo','Noto Sans KR',sans-serif" font-size="9.8" fill="#7c5b09">· 멀티샘플 median (국가·가격 5회)</text><text x="829" y="105" font-family="'Malgun Gothic','Apple SD Gothic Neo','Noto Sans KR',sans-serif" font-size="9.8" fill="#7c5b09">· 그라운딩 우선 (환각 차단)</text><text x="829" y="118" font-family="'Malgun Gothic','Apple SD Gothic Neo','Noto Sans KR',sans-serif" font-size="9.8" fill="#7c5b09">· 풀 재사용 + 멀티-LLM 폴백</text>
</svg>