<svg xmlns="http://www.w3.org/2000/svg" width="1080" height="980" viewBox="0 0 1080 980">
<defs><marker id="arrow" viewBox="0 0 10 10" refX="9" refY="5" markerWidth="7" markerHeight="7" orient="auto-start-reverse"><path d="M0,0 L10,5 L0,10 z" fill="#94a3b8"/></marker></defs>
<rect width="1080" height="980" fill="#f8fafc"/>
<rect x="0" y="0" width="1080" height="52" fill="#0a1f4d"/>
<text x="26" y="26" font-family="'Malgun Gothic','Apple SD Gothic Neo','Noto Sans KR',sans-serif" font-size="18" font-weight="800" fill="#ffffff">① 시뮬레이션 엔진 (코어)</text>
<text x="26" y="43" font-family="'Malgun Gothic','Apple SD Gothic Neo','Noto Sans KR',sans-serif" font-size="11" fill="#93c5fd">runner.ts · 5-스테이지 함수 파이프라인</text>
<text x="1060" y="968" font-family="'Cascadia Code','Consolas','D2Coding',monospace" font-size="9" fill="#cbd5e1" text-anchor="end">Market Twin · function-level architecture</text>
<rect x="420" y="70" width="240" height="40" rx="9" fill="#ffffff" stroke="#0a1f4d" stroke-width="2" /><rect x="420" y="70" width="240" height="22" rx="9" fill="#0a1f4d"/><rect x="420" y="81" width="240" height="11" fill="#0a1f4d"/><text x="430" y="85.5" font-family="'Malgun Gothic','Apple SD Gothic Neo','Noto Sans KR',sans-serif" font-size="11.5" font-weight="700" fill="#ffffff">ƒ runSimulation(opts)</text><text x="430" y="108" font-family="'Malgun Gothic','Apple SD Gothic Neo','Noto Sans KR',sans-serif" font-size="10.5" fill="#475569">runner.ts:487 — 엔트리</text><rect x="400" y="150" width="280" height="56" rx="9" fill="#ffffff" stroke="#2563eb" stroke-width="2" /><rect x="400" y="150" width="280" height="22" rx="9" fill="#2563eb"/><rect x="400" y="161" width="280" height="11" fill="#2563eb"/><text x="410" y="165.5" font-family="'Malgun Gothic','Apple SD Gothic Neo','Noto Sans KR',sans-serif" font-size="11.5" font-weight="700" fill="#ffffff">Stage 0 · 규제 사전체크</text><text x="410" y="188" font-family="'Cascadia Code','Consolas','D2Coding',monospace" font-size="10" fill="#1e293b">ƒ evaluateRegulatory(LLM, input, locale)</text><text x="410" y="202.5" font-family="'Malgun Gothic','Apple SD Gothic Neo','Noto Sans KR',sans-serif" font-size="10.5" fill="#475569">→ allowedCountries[] / excluded[]</text><rect x="60" y="250" width="250" height="50" rx="9" fill="#ffffff" stroke="#2563eb" stroke-width="2" /><rect x="60" y="250" width="250" height="22" rx="9" fill="#2563eb"/><rect x="60" y="261" width="250" height="11" fill="#2563eb"/><text x="70" y="265.5" font-family="'Malgun Gothic','Apple SD Gothic Neo','Noto Sans KR',sans-serif" font-size="11.5" font-weight="700" fill="#ffffff">ƒ planSlots()</text><text x="70" y="288" font-family="'Cascadia Code','Consolas','D2Coding',monospace" font-size="10" fill="#1e293b">→ PersonaSlot[] (국가×직업군×소득)</text><rect x="60" y="330" width="250" height="74" rx="9" fill="#ffffff" stroke="#9333ea" stroke-width="2" /><rect x="60" y="330" width="250" height="22" rx="9" fill="#9333ea"/><rect x="60" y="341" width="250" height="11" fill="#9333ea"/><text x="70" y="345.5" font-family="'Malgun Gothic','Apple SD Gothic Neo','Noto Sans KR',sans-serif" font-size="11.5" font-weight="700" fill="#ffffff">1a · 풀 샘플링(재사용)</text><text x="70" y="368" font-family="'Cascadia Code','Consolas','D2Coding',monospace" font-size="10" fill="#1e293b">fnv1a(projectId‖id) 결정적 정렬</text><text x="70" y="382.5" font-family="'Cascadia Code','Consolas','D2Coding',monospace" font-size="10" fill="#1e293b">match (country, base_profession)</text><text x="70" y="397" font-family="'Malgun Gothic','Apple SD Gothic Neo','Noto Sans KR',sans-serif" font-size="10.5" fill="#475569">→ hits / missSlots</text><rect x="350" y="330" width="250" height="74" rx="9" fill="#ffffff" stroke="#2563eb" stroke-width="2" /><rect x="350" y="330" width="250" height="22" rx="9" fill="#2563eb"/><rect x="350" y="341" width="250" height="11" fill="#2563eb"/><text x="360" y="345.5" font-family="'Malgun Gothic','Apple SD Gothic Neo','Noto Sans KR',sans-serif" font-size="11.5" font-weight="700" fill="#ffffff">1b · 신규 생성 (LLM)</text><text x="360" y="368" font-family="'Cascadia Code','Consolas','D2Coding',monospace" font-size="10" fill="#1e293b">PERSONA_SYSTEM + personaPrompt()</text><text x="360" y="382.5" font-family="'Malgun Gothic','Apple SD Gothic Neo','Noto Sans KR',sans-serif" font-size="10.5" fill="#475569">batch 12 · 절단 재시도</text><text x="360" y="397" font-family="'Cascadia Code','Consolas','D2Coding',monospace" font-size="10" fill="#1e293b">→ 풀에 저장(재사용)</text><rect x="640" y="330" width="250" height="74" rx="9" fill="#ffffff" stroke="#2563eb" stroke-width="2" /><rect x="640" y="330" width="250" height="22" rx="9" fill="#2563eb"/><rect x="640" y="341" width="250" height="11" fill="#2563eb"/><text x="650" y="345.5" font-family="'Malgun Gothic','Apple SD Gothic Neo','Noto Sans KR',sans-serif" font-size="11.5" font-weight="700" fill="#ffffff">1c · 풀히트 반응 (LLM)</text><text x="650" y="368" font-family="'Malgun Gothic','Apple SD Gothic Neo','Noto Sans KR',sans-serif" font-size="10.5" fill="#475569">PERSONA_REACTION_SYSTEM</text><text x="650" y="382.5" font-family="'Cascadia Code','Consolas','D2Coding',monospace" font-size="10" fill="#1e293b">personaReactionPrompt()</text><text x="650" y="397" font-family="'Malgun Gothic','Apple SD Gothic Neo','Noto Sans KR',sans-serif" font-size="10.5" fill="#475569">base + 반응 병합</text><rect x="350" y="430" width="250" height="56" rx="9" fill="#ffffff" stroke="#dc2626" stroke-width="2" /><rect x="350" y="430" width="250" height="22" rx="9" fill="#dc2626"/><rect x="350" y="441" width="250" height="11" fill="#dc2626"/><text x="360" y="445.5" font-family="'Malgun Gothic','Apple SD Gothic Neo','Noto Sans KR',sans-serif" font-size="11.5" font-weight="700" fill="#ffffff">품질 게이트 (sanitizer)</text><text x="360" y="468" font-family="'Malgun Gothic','Apple SD Gothic Neo','Noto Sans KR',sans-serif" font-size="10.5" fill="#475569">채널불일치 · voice-slip · 다양성</text><rect x="380" y="512" width="290" height="38" rx="9" fill="#ffffff" stroke="#2563eb" stroke-width="2" /><rect x="380" y="512" width="290" height="22" rx="9" fill="#2563eb"/><rect x="380" y="523" width="290" height="11" fill="#2563eb"/><text x="390" y="527.5" font-family="'Malgun Gothic','Apple SD Gothic Neo','Noto Sans KR',sans-serif" font-size="11.5" font-weight="700" fill="#ffffff">→ personas[] (~200)</text><rect x="720" y="505" width="300" height="56" rx="9" fill="#ffffff" stroke="#0d9488" stroke-width="2" /><rect x="720" y="505" width="300" height="22" rx="9" fill="#0d9488"/><rect x="720" y="516" width="300" height="11" fill="#0d9488"/><text x="730" y="520.5" font-family="'Malgun Gothic','Apple SD Gothic Neo','Noto Sans KR',sans-serif" font-size="11.5" font-weight="700" fill="#ffffff">loadReferenceBundles()</text><text x="730" y="543" font-family="'Cascadia Code','Consolas','D2Coding',monospace" font-size="10" fill="#1e293b">renderReferenceBlock() → 프롬프트 주입</text><text x="730" y="557.5" font-family="'Malgun Gothic','Apple SD Gothic Neo','Noto Sans KR',sans-serif" font-size="10.5" fill="#475569">country_stats / income / norms / competitors</text><rect x="380" y="590" width="300" height="70" rx="9" fill="#ffffff" stroke="#2563eb" stroke-width="2" /><rect x="380" y="590" width="300" height="22" rx="9" fill="#2563eb"/><rect x="380" y="601" width="300" height="11" fill="#2563eb"/><text x="390" y="605.5" font-family="'Malgun Gothic','Apple SD Gothic Neo','Noto Sans KR',sans-serif" font-size="11.5" font-weight="700" fill="#ffffff">Stage 2 · 국가 점수 (멀티샘플)</text><text x="390" y="628" font-family="'Cascadia Code','Consolas','D2Coding',monospace" font-size="10" fill="#1e293b">countryPrompt() × 5 (병렬)</text><text x="390" y="642.5" font-family="'Cascadia Code','Consolas','D2Coding',monospace" font-size="10" fill="#1e293b">ƒ aggregateCountryScores() — median</text><text x="390" y="657" font-family="'Malgun Gothic','Apple SD Gothic Neo','Noto Sans KR',sans-serif" font-size="10.5" fill="#475569">FINAL_SCORE_WEIGHTS · 컴포넌트 재계산</text><rect x="380" y="686" width="300" height="86" rx="9" fill="#ffffff" stroke="#2563eb" stroke-width="2" /><rect x="380" y="686" width="300" height="22" rx="9" fill="#2563eb"/><rect x="380" y="697" width="300" height="11" fill="#2563eb"/><text x="390" y="701.5" font-family="'Malgun Gothic','Apple SD Gothic Neo','Noto Sans KR',sans-serif" font-size="11.5" font-weight="700" fill="#ffffff">Stage 3 · 가격 (멀티샘플)</text><text x="390" y="724" font-family="'Cascadia Code','Consolas','D2Coding',monospace" font-size="10" fill="#1e293b">ƒ extractCompetitorPrices() — 경쟁가 앵커</text><text x="390" y="738.5" font-family="'Cascadia Code','Consolas','D2Coding',monospace" font-size="10" fill="#1e293b">ƒ computePricingRange() — min/max</text><text x="390" y="753" font-family="'Cascadia Code','Consolas','D2Coding',monospace" font-size="10" fill="#1e293b">pricingPrompt() × 5 → median + 단조 클램프</text><rect x="380" y="796" width="300" height="70" rx="9" fill="#ffffff" stroke="#2563eb" stroke-width="2" /><rect x="380" y="796" width="300" height="22" rx="9" fill="#2563eb"/><rect x="380" y="807" width="300" height="11" fill="#2563eb"/><text x="390" y="811.5" font-family="'Malgun Gothic','Apple SD Gothic Neo','Noto Sans KR',sans-serif" font-size="11.5" font-weight="700" fill="#ffffff">Stage 4 · 종합 + 비평</text><text x="390" y="834" font-family="'Cascadia Code','Consolas','D2Coding',monospace" font-size="10" fill="#1e293b">SYNTHESIS_SYSTEM + synthesisPrompt()</text><text x="390" y="848.5" font-family="'Malgun Gothic','Apple SD Gothic Neo','Noto Sans KR',sans-serif" font-size="10.5" fill="#475569">→ overview·creative·risks·추천</text><text x="390" y="863" font-family="'Cascadia Code','Consolas','D2Coding',monospace" font-size="10" fill="#1e293b">비평/자동수정 (bestCountry·riskLevel 정합)</text><rect x="720" y="800" width="300" height="50" rx="9" fill="#ffffff" stroke="#dc2626" stroke-width="2" /><rect x="720" y="800" width="300" height="22" rx="9" fill="#dc2626"/><rect x="720" y="811" width="300" height="11" fill="#dc2626"/><text x="730" y="815.5" font-family="'Malgun Gothic','Apple SD Gothic Neo','Noto Sans KR',sans-serif" font-size="11.5" font-weight="700" fill="#ffffff">ƒ auditQuality()</text><text x="730" y="838" font-family="'Malgun Gothic','Apple SD Gothic Neo','Noto Sans KR',sans-serif" font-size="10.5" fill="#475569">confidenceScore · warnings → simulation_quality</text><rect x="380" y="895" width="300" height="40" rx="9" fill="#ffffff" stroke="#0a1f4d" stroke-width="2" /><rect x="380" y="895" width="300" height="22" rx="9" fill="#0a1f4d"/><rect x="380" y="906" width="300" height="11" fill="#0a1f4d"/><text x="390" y="910.5" font-family="'Malgun Gothic','Apple SD Gothic Neo','Noto Sans KR',sans-serif" font-size="11.5" font-weight="700" fill="#ffffff">→ SimulationResult</text><text x="390" y="933" font-family="'Malgun Gothic','Apple SD Gothic Neo','Noto Sans KR',sans-serif" font-size="10.5" fill="#475569">simulation_results 저장 + notify</text><path d="M540,110 L540,150" fill="none" stroke="#94a3b8" stroke-width="1.6"  marker-end="url(#arrow)"/><path d="M540,206 L540,228 L185,228 L185,250" fill="none" stroke="#94a3b8" stroke-width="1.6"  marker-end="url(#arrow)"/><rect x="322.5" y="220" width="80" height="15" rx="3" fill="#ffffff" opacity="0.92"/><text x="362.5" y="231" font-family="'Malgun Gothic','Apple SD Gothic Neo','Noto Sans KR',sans-serif" font-size="9.5" fill="#64748b" text-anchor="middle">Stage 1 페르소나</text><path d="M185,300 L185,330" fill="none" stroke="#94a3b8" stroke-width="1.6"  marker-end="url(#arrow)"/><path d="M310,367 L350,367" fill="none" stroke="#94a3b8" stroke-width="1.6"  marker-end="url(#arrow)"/><rect x="314" y="359" width="32" height="15" rx="3" fill="#ffffff" opacity="0.92"/><text x="330" y="370" font-family="'Malgun Gothic','Apple SD Gothic Neo','Noto Sans KR',sans-serif" font-size="9.5" fill="#64748b" text-anchor="middle">miss</text><path d="M185,330 L475,330 L475,330 L765,330" fill="none" stroke="#94a3b8" stroke-width="1.6" stroke-dasharray="5 4" marker-end="url(#arrow)"/><rect x="462" y="322" width="26" height="15" rx="3" fill="#ffffff" opacity="0.92"/><text x="475" y="333" font-family="'Malgun Gothic','Apple SD Gothic Neo','Noto Sans KR',sans-serif" font-size="9.5" fill="#64748b" text-anchor="middle">hit</text><path d="M475,404 L475,430" fill="none" stroke="#94a3b8" stroke-width="1.6"  marker-end="url(#arrow)"/><path d="M765,404 L765,417 L475,417 L475,430" fill="none" stroke="#94a3b8" stroke-width="1.6"  marker-end="url(#arrow)"/><path d="M475,486 L525,512" fill="none" stroke="#94a3b8" stroke-width="1.6"  marker-end="url(#arrow)"/><path d="M720,533 L680,625" fill="none" stroke="#94a3b8" stroke-width="1.6" stroke-dasharray="5 4" marker-end="url(#arrow)"/><rect x="684" y="571" width="32" height="15" rx="3" fill="#ffffff" opacity="0.92"/><text x="700" y="582" font-family="'Malgun Gothic','Apple SD Gothic Neo','Noto Sans KR',sans-serif" font-size="9.5" fill="#64748b" text-anchor="middle">그라운딩</text><path d="M525,550 L530,590" fill="none" stroke="#94a3b8" stroke-width="1.6"  marker-end="url(#arrow)"/><path d="M530,660 L530,686" fill="none" stroke="#94a3b8" stroke-width="1.6"  marker-end="url(#arrow)"/><path d="M530,772 L530,796" fill="none" stroke="#94a3b8" stroke-width="1.6"  marker-end="url(#arrow)"/><path d="M530,866 L530,895" fill="none" stroke="#94a3b8" stroke-width="1.6"  marker-end="url(#arrow)"/><path d="M680,831 L720,825" fill="none" stroke="#94a3b8" stroke-width="1.6" stroke-dasharray="5 4" marker-end="url(#arrow)"/><rect x="60" y="440" width="250" height="47" rx="6" fill="#f59e0b11" stroke="#f59e0b" stroke-width="1" stroke-dasharray="3 3"/><text x="69" y="457" font-family="'Malgun Gothic','Apple SD Gothic Neo','Noto Sans KR',sans-serif" font-size="9.8" fill="#7c5b09">ⓘ 풀 = personas 테이블(글로벌)</text><text x="69" y="470" font-family="'Malgun Gothic','Apple SD Gothic Neo','Noto Sans KR',sans-serif" font-size="9.8" fill="#7c5b09">돌릴수록 hit↑ → 비용↓</text><text x="69" y="483" font-family="'Malgun Gothic','Apple SD Gothic Neo','Noto Sans KR',sans-serif" font-size="9.8" fill="#7c5b09">반응은 매 sim 재생성(제품별)</text>
</svg>