<svg xmlns="http://www.w3.org/2000/svg" width="1040" height="760" viewBox="0 0 1040 760">
<defs><marker id="arrow" viewBox="0 0 10 10" refX="9" refY="5" markerWidth="7" markerHeight="7" orient="auto-start-reverse"><path d="M0,0 L10,5 L0,10 z" fill="#94a3b8"/></marker></defs>
<rect width="1040" height="760" fill="#f8fafc"/>
<rect x="0" y="0" width="1040" height="52" fill="#0a1f4d"/>
<text x="26" y="26" font-family="'Malgun Gothic','Apple SD Gothic Neo','Noto Sans KR',sans-serif" font-size="18" font-weight="800" fill="#ffffff">② 앙상블 오케스트레이터</text>
<text x="26" y="43" font-family="'Malgun Gothic','Apple SD Gothic Neo','Noto Sans KR',sans-serif" font-size="11" fill="#93c5fd">orchestrator.ts · 프리페치 → 팬아웃 → 집계</text>
<text x="1020" y="748" font-family="'Cascadia Code','Consolas','D2Coding',monospace" font-size="9" fill="#cbd5e1" text-anchor="end">Market Twin · function-level architecture</text>
<rect x="400" y="70" width="240" height="40" rx="9" fill="#ffffff" stroke="#0a1f4d" stroke-width="2" /><rect x="400" y="70" width="240" height="22" rx="9" fill="#0a1f4d"/><rect x="400" y="81" width="240" height="11" fill="#0a1f4d"/><text x="410" y="85.5" font-family="'Malgun Gothic','Apple SD Gothic Neo','Noto Sans KR',sans-serif" font-size="11.5" font-weight="700" fill="#ffffff">ƒ runEnsemble(context)</text><text x="410" y="108" font-family="'Malgun Gothic','Apple SD Gothic Neo','Noto Sans KR',sans-serif" font-size="10.5" fill="#475569">orchestrator.ts</text><rect x="60" y="150" width="300" height="110" rx="9" fill="#ffffff" stroke="#1d4ed8" stroke-width="2" /><rect x="60" y="150" width="300" height="22" rx="9" fill="#1d4ed8"/><rect x="60" y="161" width="300" height="11" fill="#1d4ed8"/><text x="70" y="165.5" font-family="'Malgun Gothic','Apple SD Gothic Neo','Noto Sans KR',sans-serif" font-size="11.5" font-weight="700" fill="#ffffff">TIER_PRESETS</text><text x="70" y="188" font-family="'Malgun Gothic','Apple SD Gothic Neo','Noto Sans KR',sans-serif" font-size="10.5" fill="#475569">hypothesis 3 · decision 6</text><text x="70" y="202.5" font-family="'Malgun Gothic','Apple SD Gothic Neo','Noto Sans KR',sans-serif" font-size="10.5" fill="#475569">decision_plus 15 · deep 25</text><text x="70" y="217" font-family="'Cascadia Code','Consolas','D2Coding',monospace" font-size="10" fill="#1e293b">deep_pro 50  (각 200 페르소나)</text><text x="70" y="231.5" font-family="'Malgun Gothic','Apple SD Gothic Neo','Noto Sans KR',sans-serif" font-size="10.5" fill="#475569">멀티 프로바이더 라운드로빈</text><rect x="60" y="290" width="300" height="60" rx="9" fill="#ffffff" stroke="#dc2626" stroke-width="2" /><rect x="60" y="290" width="300" height="22" rx="9" fill="#dc2626"/><rect x="60" y="301" width="300" height="11" fill="#dc2626"/><text x="70" y="305.5" font-family="'Malgun Gothic','Apple SD Gothic Neo','Noto Sans KR',sans-serif" font-size="11.5" font-weight="700" fill="#ffffff">비용 서킷브레이커</text><text x="70" y="328" font-family="'Cascadia Code','Consolas','D2Coding',monospace" font-size="10" fill="#1e293b">TIER_BUDGET_CENTS (예산 3× 초과 → kill)</text><rect x="420" y="150" width="320" height="120" rx="9" fill="#ffffff" stroke="#0891b2" stroke-width="2" /><rect x="420" y="150" width="320" height="22" rx="9" fill="#0891b2"/><rect x="420" y="161" width="320" height="11" fill="#0891b2"/><text x="430" y="165.5" font-family="'Malgun Gothic','Apple SD Gothic Neo','Noto Sans KR',sans-serif" font-size="11.5" font-weight="700" fill="#ffffff">ƒ prefetchSimulationContext()  (1회)</text><text x="430" y="188" font-family="'Cascadia Code','Consolas','D2Coding',monospace" font-size="10" fill="#1e293b">tavily(트렌드·마진·KOL)</text><text x="430" y="202.5" font-family="'Cascadia Code','Consolas','D2Coding',monospace" font-size="10" fill="#1e293b">comtrade(수출흐름) · world-bank(GDP)</text><text x="430" y="217" font-family="'Cascadia Code','Consolas','D2Coding',monospace" font-size="10" fill="#1e293b">extractCompetitorPrices(URL→가격)</text><text x="430" y="231.5" font-family="'Cascadia Code','Consolas','D2Coding',monospace" font-size="10" fill="#1e293b">→ 전 sim 공유 (25× 중복 차단)</text><rect x="420" y="320" width="320" height="92" rx="9" fill="#ffffff" stroke="#1d4ed8" stroke-width="2" /><rect x="420" y="320" width="320" height="22" rx="9" fill="#1d4ed8"/><rect x="420" y="331" width="320" height="11" fill="#1d4ed8"/><text x="430" y="335.5" font-family="'Malgun Gothic','Apple SD Gothic Neo','Noto Sans KR',sans-serif" font-size="11.5" font-weight="700" fill="#ffffff">워커 풀 (프로바이더별 동시성)</text><text x="430" y="358" font-family="'Malgun Gothic','Apple SD Gothic Neo','Noto Sans KR',sans-serif" font-size="10.5" fill="#475569">anthropic·openai·deepseek·xai = 12</text><text x="430" y="372.5" font-family="'Cascadia Code','Consolas','D2Coding',monospace" font-size="10" fill="#1e293b">gemini = 4 (버스트 약함)</text><text x="430" y="387" font-family="'Malgun Gothic','Apple SD Gothic Neo','Noto Sans KR',sans-serif" font-size="10.5" fill="#475569">프로바이더별 큐 직렬 실행</text><rect x="420" y="440" width="320" height="50" rx="9" fill="#ffffff" stroke="#2563eb" stroke-width="2" /><rect x="420" y="440" width="320" height="22" rx="9" fill="#2563eb"/><rect x="420" y="451" width="320" height="11" fill="#2563eb"/><text x="430" y="455.5" font-family="'Malgun Gothic','Apple SD Gothic Neo','Noto Sans KR',sans-serif" font-size="11.5" font-weight="700" fill="#ffffff">ƒ runSimulation() × N</text><text x="430" y="478" font-family="'Cascadia Code','Consolas','D2Coding',monospace" font-size="10" fill="#1e293b">→ ① 시뮬레이션 엔진 (각 결과 snapshot)</text><rect x="360" y="530" width="440" height="130" rx="9" fill="#ffffff" stroke="#1d4ed8" stroke-width="2" /><rect x="360" y="530" width="440" height="22" rx="9" fill="#1d4ed8"/><rect x="360" y="541" width="440" height="11" fill="#1d4ed8"/><text x="370" y="545.5" font-family="'Malgun Gothic','Apple SD Gothic Neo','Noto Sans KR',sans-serif" font-size="11.5" font-weight="700" fill="#ffffff">ƒ aggregateEnsemble(snapshots)</text><text x="370" y="568" font-family="'Cascadia Code','Consolas','D2Coding',monospace" font-size="10" fill="#1e293b">· 국가 median + 신뢰도(across-sim std)</text><text x="370" y="582.5" font-family="'Cascadia Code','Consolas','D2Coding',monospace" font-size="10" fill="#1e293b">· 컴포넌트 분해(시장·문화·채널·가격·경쟁·규제)</text><text x="370" y="597" font-family="'Cascadia Code','Consolas','D2Coding',monospace" font-size="10" fill="#1e293b">· 프로바이더 합의(어느 LLM이 top-3 동의?)</text><text x="370" y="611.5" font-family="'Cascadia Code','Consolas','D2Coding',monospace" font-size="10" fill="#1e293b">· 내러티브 머지(리스크 dedupe·추천 병합)</text><text x="370" y="626" font-family="'Cascadia Code','Consolas','D2Coding',monospace" font-size="10" fill="#1e293b">· cacFromPersonas() · marketProfile</text><rect x="360" y="690" width="440" height="40" rx="9" fill="#ffffff" stroke="#0a1f4d" stroke-width="2" /><rect x="360" y="690" width="440" height="22" rx="9" fill="#0a1f4d"/><rect x="360" y="701" width="440" height="11" fill="#0a1f4d"/><text x="370" y="705.5" font-family="'Malgun Gothic','Apple SD Gothic Neo','Noto Sans KR',sans-serif" font-size="11.5" font-weight="700" fill="#ffffff">→ EnsembleResult</text><text x="370" y="728" font-family="'Malgun Gothic','Apple SD Gothic Neo','Noto Sans KR',sans-serif" font-size="10.5" fill="#475569">ensembles.aggregate_result 저장</text><path d="M520,110 L520,130 L210,130 L210,150" fill="none" stroke="#94a3b8" stroke-width="1.6"  marker-end="url(#arrow)"/><path d="M520,110 L520,130 L580,130 L580,150" fill="none" stroke="#94a3b8" stroke-width="1.6"  marker-end="url(#arrow)"/><path d="M210,260 L210,290" fill="none" stroke="#94a3b8" stroke-width="1.6"  marker-end="url(#arrow)"/><path d="M580,270 L580,320" fill="none" stroke="#94a3b8" stroke-width="1.6"  marker-end="url(#arrow)"/><path d="M360,320 L420,366" fill="none" stroke="#94a3b8" stroke-width="1.6" stroke-dasharray="5 4" marker-end="url(#arrow)"/><rect x="380" y="335" width="20" height="15" rx="3" fill="#ffffff" opacity="0.92"/><text x="390" y="346" font-family="'Malgun Gothic','Apple SD Gothic Neo','Noto Sans KR',sans-serif" font-size="9.5" fill="#64748b" text-anchor="middle">감시</text><path d="M580,412 L580,440" fill="none" stroke="#94a3b8" stroke-width="1.6"  marker-end="url(#arrow)"/><path d="M580,490 L580,530" fill="none" stroke="#94a3b8" stroke-width="1.6"  marker-end="url(#arrow)"/><path d="M580,660 L580,690" fill="none" stroke="#94a3b8" stroke-width="1.6"  marker-end="url(#arrow)"/>
</svg>