<svg xmlns="http://www.w3.org/2000/svg" width="1040" height="640" viewBox="0 0 1040 640">
<defs><marker id="arrow" viewBox="0 0 10 10" refX="9" refY="5" markerWidth="7" markerHeight="7" orient="auto-start-reverse"><path d="M0,0 L10,5 L0,10 z" fill="#94a3b8"/></marker></defs>
<rect width="1040" height="640" fill="#f8fafc"/>
<rect x="0" y="0" width="1040" height="52" fill="#0a1f4d"/>
<text x="26" y="26" font-family="'Malgun Gothic','Apple SD Gothic Neo','Noto Sans KR',sans-serif" font-size="18" font-weight="800" fill="#ffffff">③ 시장조사 / 데이터 인제스천 엔진</text>
<text x="26" y="43" font-family="'Malgun Gothic','Apple SD Gothic Neo','Noto Sans KR',sans-serif" font-size="11" fill="#93c5fd">market-research/ · 외부 소스 → 그라운딩 블록</text>
<text x="1020" y="628" font-family="'Cascadia Code','Consolas','D2Coding',monospace" font-size="9" fill="#cbd5e1" text-anchor="end">Market Twin · function-level architecture</text>
<rect x="60" y="90" width="320" height="76" rx="9" fill="#ffffff" stroke="#0891b2" stroke-width="2" /><rect x="60" y="90" width="320" height="22" rx="9" fill="#0891b2"/><rect x="60" y="101" width="320" height="11" fill="#0891b2"/><text x="70" y="105.5" font-family="'Malgun Gothic','Apple SD Gothic Neo','Noto Sans KR',sans-serif" font-size="11.5" font-weight="700" fill="#ffffff">Tavily 검색  (tavily.ts)</text><text x="70" y="128" font-family="'Malgun Gothic','Apple SD Gothic Neo','Noto Sans KR',sans-serif" font-size="10.5" fill="#475569">트렌드·마진 벤치마크·KOL 생태계</text><rect x="420" y="90" width="320" height="76" rx="9" fill="#ffffff" stroke="#0891b2" stroke-width="2" /><rect x="420" y="90" width="320" height="22" rx="9" fill="#0891b2"/><rect x="420" y="101" width="320" height="11" fill="#0891b2"/><text x="430" y="105.5" font-family="'Malgun Gothic','Apple SD Gothic Neo','Noto Sans KR',sans-serif" font-size="11.5" font-weight="700" fill="#ffffff">UN Comtrade  (comtrade.ts)</text><text x="430" y="128" font-family="'Cascadia Code','Consolas','D2Coding',monospace" font-size="10" fill="#1e293b">한국 수출 흐름(HSCode·국가별)</text><rect x="60" y="190" width="320" height="76" rx="9" fill="#ffffff" stroke="#0891b2" stroke-width="2" /><rect x="60" y="190" width="320" height="22" rx="9" fill="#0891b2"/><rect x="60" y="201" width="320" height="11" fill="#0891b2"/><text x="70" y="205.5" font-family="'Malgun Gothic','Apple SD Gothic Neo','Noto Sans KR',sans-serif" font-size="11.5" font-weight="700" fill="#ffffff">World Bank  (world-bank.ts)</text><text x="70" y="228" font-family="'Malgun Gothic','Apple SD Gothic Neo','Noto Sans KR',sans-serif" font-size="10.5" fill="#475569">GDP-PPP·인구·소비</text><rect x="420" y="190" width="320" height="76" rx="9" fill="#ffffff" stroke="#0891b2" stroke-width="2" /><rect x="420" y="190" width="320" height="22" rx="9" fill="#0891b2"/><rect x="420" y="201" width="320" height="11" fill="#0891b2"/><text x="430" y="205.5" font-family="'Malgun Gothic','Apple SD Gothic Neo','Noto Sans KR',sans-serif" font-size="11.5" font-weight="700" fill="#ffffff">KOTRA  (kotra.ts)</text><text x="430" y="228" font-family="'Malgun Gothic','Apple SD Gothic Neo','Noto Sans KR',sans-serif" font-size="10.5" fill="#475569">K-수출 시장 데이터</text><rect x="60" y="290" width="320" height="76" rx="9" fill="#ffffff" stroke="#0891b2" stroke-width="2" /><rect x="60" y="290" width="320" height="22" rx="9" fill="#0891b2"/><rect x="60" y="301" width="320" height="11" fill="#0891b2"/><text x="70" y="305.5" font-family="'Malgun Gothic','Apple SD Gothic Neo','Noto Sans KR',sans-serif" font-size="11.5" font-weight="700" fill="#ffffff">DART  (dart.ts)</text><text x="70" y="328" font-family="'Malgun Gothic','Apple SD Gothic Neo','Noto Sans KR',sans-serif" font-size="10.5" fill="#475569">기업 공시·규제</text><rect x="420" y="290" width="320" height="76" rx="9" fill="#ffffff" stroke="#0891b2" stroke-width="2" /><rect x="420" y="290" width="320" height="22" rx="9" fill="#0891b2"/><rect x="420" y="301" width="320" height="11" fill="#0891b2"/><text x="430" y="305.5" font-family="'Malgun Gothic','Apple SD Gothic Neo','Noto Sans KR',sans-serif" font-size="11.5" font-weight="700" fill="#ffffff">관세청/UNIPASS  (korea-customs.ts / unipass.ts)</text><text x="430" y="328" font-family="'Malgun Gothic','Apple SD Gothic Neo','Noto Sans KR',sans-serif" font-size="10.5" fill="#475569">수출입 통계</text><rect x="60" y="390" width="320" height="76" rx="9" fill="#ffffff" stroke="#0891b2" stroke-width="2" /><rect x="60" y="390" width="320" height="22" rx="9" fill="#0891b2"/><rect x="60" y="401" width="320" height="11" fill="#0891b2"/><text x="70" y="405.5" font-family="'Malgun Gothic','Apple SD Gothic Neo','Noto Sans KR',sans-serif" font-size="11.5" font-weight="700" fill="#ffffff">MFDS  (mfds.ts)</text><text x="70" y="428" font-family="'Malgun Gothic','Apple SD Gothic Neo','Noto Sans KR',sans-serif" font-size="10.5" fill="#475569">식약 규제</text><rect x="420" y="390" width="320" height="76" rx="9" fill="#ffffff" stroke="#0891b2" stroke-width="2" /><rect x="420" y="390" width="320" height="22" rx="9" fill="#0891b2"/><rect x="420" y="401" width="320" height="11" fill="#0891b2"/><text x="430" y="405.5" font-family="'Malgun Gothic','Apple SD Gothic Neo','Noto Sans KR',sans-serif" font-size="11.5" font-weight="700" fill="#ffffff">Perplexity Sonar  (sonar.ts)</text><text x="430" y="428" font-family="'Cascadia Code','Consolas','D2Coding',monospace" font-size="10" fill="#1e293b">웹 검색 그라운딩(폴백)</text><rect x="760" y="230" width="230" height="200" rx="9" fill="#ffffff" stroke="#2563eb" stroke-width="2" /><rect x="760" y="230" width="230" height="22" rx="9" fill="#2563eb"/><rect x="760" y="241" width="230" height="11" fill="#2563eb"/><text x="770" y="245.5" font-family="'Malgun Gothic','Apple SD Gothic Neo','Noto Sans KR',sans-serif" font-size="11.5" font-weight="700" fill="#ffffff">그라운딩 블록</text><text x="770" y="268" font-family="'Malgun Gothic','Apple SD Gothic Neo','Noto Sans KR',sans-serif" font-size="10.5" fill="#475569">tradeAnchorBlock</text><text x="770" y="282.5" font-family="'Malgun Gothic','Apple SD Gothic Neo','Noto Sans KR',sans-serif" font-size="10.5" fill="#475569">worldBankBlock</text><text x="770" y="297" font-family="'Malgun Gothic','Apple SD Gothic Neo','Noto Sans KR',sans-serif" font-size="10.5" fill="#475569">kolEcosystemByCountry</text><text x="770" y="311.5" font-family="'Malgun Gothic','Apple SD Gothic Neo','Noto Sans KR',sans-serif" font-size="10.5" fill="#475569">competitorPriceBlock</text><text x="770" y="326" font-family="'Malgun Gothic','Apple SD Gothic Neo','Noto Sans KR',sans-serif" font-size="10.5" fill="#475569"></text><text x="770" y="340.5" font-family="'Malgun Gothic','Apple SD Gothic Neo','Noto Sans KR',sans-serif" font-size="10.5" fill="#475569">→ 프롬프트에 '사실' 주입</text><text x="770" y="355" font-family="'Cascadia Code','Consolas','D2Coding',monospace" font-size="10" fill="#1e293b">→ 환각 차단(국가·가격)</text><path d="M380,128 L760,330" fill="none" stroke="#cbd5e1" stroke-width="1.6"  marker-end="url(#arrow)"/><path d="M740,128 L760,330" fill="none" stroke="#cbd5e1" stroke-width="1.6"  marker-end="url(#arrow)"/><path d="M380,228 L760,330" fill="none" stroke="#cbd5e1" stroke-width="1.6"  marker-end="url(#arrow)"/><path d="M740,228 L760,330" fill="none" stroke="#cbd5e1" stroke-width="1.6"  marker-end="url(#arrow)"/><path d="M380,328 L760,330" fill="none" stroke="#cbd5e1" stroke-width="1.6"  marker-end="url(#arrow)"/><path d="M740,328 L760,330" fill="none" stroke="#cbd5e1" stroke-width="1.6"  marker-end="url(#arrow)"/><path d="M380,428 L760,330" fill="none" stroke="#cbd5e1" stroke-width="1.6"  marker-end="url(#arrow)"/><path d="M740,428 L760,330" fill="none" stroke="#cbd5e1" stroke-width="1.6"  marker-end="url(#arrow)"/><rect x="60" y="500" width="670" height="21" rx="6" fill="#f59e0b11" stroke="#f59e0b" stroke-width="1" stroke-dasharray="3 3"/><text x="69" y="517" font-family="'Malgun Gothic','Apple SD Gothic Neo','Noto Sans KR',sans-serif" font-size="9.8" fill="#7c5b09">ⓘ orchestrator.prefetchSimulationContext()가 앙상블당 1회만 호출 → 전 sim 공유.  Market Twin은 정부·무역 공식 데이터를 그대로 사용(경북 AI무역센터와 동일 계열).</text>
</svg>