<svg xmlns="http://www.w3.org/2000/svg" width="1000" height="620" viewBox="0 0 1000 620">
<defs><marker id="arrow" viewBox="0 0 10 10" refX="9" refY="5" markerWidth="7" markerHeight="7" orient="auto-start-reverse"><path d="M0,0 L10,5 L0,10 z" fill="#94a3b8"/></marker></defs>
<rect width="1000" height="620" fill="#f8fafc"/>
<rect x="0" y="0" width="1000" height="52" fill="#0a1f4d"/>
<text x="26" y="26" font-family="'Malgun Gothic','Apple SD Gothic Neo','Noto Sans KR',sans-serif" font-size="18" font-weight="800" fill="#ffffff">④ 레퍼런스 데이터 엔진</text>
<text x="26" y="43" font-family="'Malgun Gothic','Apple SD Gothic Neo','Noto Sans KR',sans-serif" font-size="11" fill="#93c5fd">reference/ + Supabase · 그라운딩 번들</text>
<text x="980" y="608" font-family="'Cascadia Code','Consolas','D2Coding',monospace" font-size="9" fill="#cbd5e1" text-anchor="end">Market Twin · function-level architecture</text>
<rect x="360" y="80" width="300" height="50" rx="9" fill="#ffffff" stroke="#0d9488" stroke-width="2" /><rect x="360" y="80" width="300" height="22" rx="9" fill="#0d9488"/><rect x="360" y="91" width="300" height="11" fill="#0d9488"/><text x="370" y="95.5" font-family="'Malgun Gothic','Apple SD Gothic Neo','Noto Sans KR',sans-serif" font-size="11.5" font-weight="700" fill="#ffffff">ƒ loadReferenceBundles(countries, category)</text><text x="370" y="118" font-family="'Malgun Gothic','Apple SD Gothic Neo','Noto Sans KR',sans-serif" font-size="10.5" fill="#475569">4개 테이블 병렬 fetch</text><rect x="40" y="180" width="230" height="84" rx="9" fill="#ffffff" stroke="#9333ea" stroke-width="2" /><rect x="40" y="180" width="230" height="22" rx="9" fill="#9333ea"/><rect x="40" y="191" width="230" height="11" fill="#9333ea"/><text x="50" y="195.5" font-family="'Malgun Gothic','Apple SD Gothic Neo','Noto Sans KR',sans-serif" font-size="11.5" font-weight="700" fill="#ffffff">country_stats_latest</text><text x="50" y="218" font-family="'Malgun Gothic','Apple SD Gothic Neo','Noto Sans KR',sans-serif" font-size="10.5" fill="#475569">GDP·인구·통화·중위소득</text><text x="50" y="232.5" font-family="'Malgun Gothic','Apple SD Gothic Neo','Noto Sans KR',sans-serif" font-size="10.5" fill="#475569">→ 페르소나 소득 그라운딩</text><rect x="290" y="180" width="230" height="84" rx="9" fill="#ffffff" stroke="#9333ea" stroke-width="2" /><rect x="290" y="180" width="230" height="22" rx="9" fill="#9333ea"/><rect x="290" y="191" width="230" height="11" fill="#9333ea"/><text x="300" y="195.5" font-family="'Malgun Gothic','Apple SD Gothic Neo','Noto Sans KR',sans-serif" font-size="11.5" font-weight="700" fill="#ffffff">country_profession_income</text><text x="300" y="218" font-family="'Malgun Gothic','Apple SD Gothic Neo','Noto Sans KR',sans-serif" font-size="10.5" fill="#475569">직업×연령 소득 밴드</text><text x="300" y="232.5" font-family="'Malgun Gothic','Apple SD Gothic Neo','Noto Sans KR',sans-serif" font-size="10.5" fill="#475569">→ 페르소나 제약 충족</text><rect x="40" y="290" width="230" height="84" rx="9" fill="#ffffff" stroke="#9333ea" stroke-width="2" /><rect x="40" y="290" width="230" height="22" rx="9" fill="#9333ea"/><rect x="40" y="301" width="230" height="11" fill="#9333ea"/><text x="50" y="305.5" font-family="'Malgun Gothic','Apple SD Gothic Neo','Noto Sans KR',sans-serif" font-size="11.5" font-weight="700" fill="#ffffff">country_consumer_norms</text><text x="50" y="328" font-family="'Malgun Gothic','Apple SD Gothic Neo','Noto Sans KR',sans-serif" font-size="10.5" fill="#475569">신뢰요인·반론·선호채널</text><text x="50" y="342.5" font-family="'Malgun Gothic','Apple SD Gothic Neo','Noto Sans KR',sans-serif" font-size="10.5" fill="#475569">→ 문화 그라운딩</text><rect x="290" y="290" width="230" height="84" rx="9" fill="#ffffff" stroke="#9333ea" stroke-width="2" /><rect x="290" y="290" width="230" height="22" rx="9" fill="#9333ea"/><rect x="290" y="301" width="230" height="11" fill="#9333ea"/><text x="300" y="305.5" font-family="'Malgun Gothic','Apple SD Gothic Neo','Noto Sans KR',sans-serif" font-size="11.5" font-weight="700" fill="#ffffff">category_competitors</text><text x="300" y="328" font-family="'Malgun Gothic','Apple SD Gothic Neo','Noto Sans KR',sans-serif" font-size="10.5" fill="#475569">카테고리×국가 브랜드</text><text x="300" y="342.5" font-family="'Malgun Gothic','Apple SD Gothic Neo','Noto Sans KR',sans-serif" font-size="10.5" fill="#475569">→ 경쟁 지형</text><rect x="560" y="200" width="380" height="60" rx="9" fill="#ffffff" stroke="#0d9488" stroke-width="2" /><rect x="560" y="200" width="380" height="22" rx="9" fill="#0d9488"/><rect x="560" y="211" width="380" height="11" fill="#0d9488"/><text x="570" y="215.5" font-family="'Malgun Gothic','Apple SD Gothic Neo','Noto Sans KR',sans-serif" font-size="11.5" font-weight="700" fill="#ffffff">ƒ renderReferenceBlock(bundles, locale)</text><text x="570" y="238" font-family="'Cascadia Code','Consolas','D2Coding',monospace" font-size="10" fill="#1e293b">→ 텍스트 블록(페르소나/국가 프롬프트에 주입)</text><rect x="560" y="300" width="380" height="56" rx="9" fill="#ffffff" stroke="#0d9488" stroke-width="2" /><rect x="560" y="300" width="380" height="22" rx="9" fill="#0d9488"/><rect x="560" y="311" width="380" height="11" fill="#0d9488"/><text x="570" y="315.5" font-family="'Malgun Gothic','Apple SD Gothic Neo','Noto Sans KR',sans-serif" font-size="11.5" font-weight="700" fill="#ffffff">ƒ collectSourceAttributions()</text><text x="570" y="338" font-family="'Malgun Gothic','Apple SD Gothic Neo','Noto Sans KR',sans-serif" font-size="10.5" fill="#475569">출처 URL 수집 → 결과 리포트 attribution</text><rect x="560" y="400" width="380" height="76" rx="9" fill="#ffffff" stroke="#ea580c" stroke-width="2" /><rect x="560" y="400" width="380" height="22" rx="9" fill="#ea580c"/><rect x="560" y="411" width="380" height="11" fill="#ea580c"/><text x="570" y="415.5" font-family="'Malgun Gothic','Apple SD Gothic Neo','Noto Sans KR',sans-serif" font-size="11.5" font-weight="700" fill="#ffffff">보조 레퍼런스 (CAC용)</text><text x="570" y="438" font-family="'Cascadia Code','Consolas','D2Coding',monospace" font-size="10" fill="#1e293b">channel-costs.ts (채널 CVR·전환단가)</text><text x="570" y="452.5" font-family="'Malgun Gothic','Apple SD Gothic Neo','Noto Sans KR',sans-serif" font-size="10.5" fill="#475569">cac-benchmarks.ts · hofstede-dimensions.ts</text><path d="M510,130 L510,155 L155,155 L155,180" fill="none" stroke="#94a3b8" stroke-width="1.6"  marker-end="url(#arrow)"/><path d="M510,130 L510,155 L155,155 L155,180" fill="none" stroke="#cbd5e1" stroke-width="1.6"  marker-end="url(#arrow)"/><path d="M510,130 L510,155 L405,155 L405,180" fill="none" stroke="#cbd5e1" stroke-width="1.6"  marker-end="url(#arrow)"/><path d="M510,130 L510,210 L155,210 L155,290" fill="none" stroke="#cbd5e1" stroke-width="1.6"  marker-end="url(#arrow)"/><path d="M510,130 L510,210 L405,210 L405,290" fill="none" stroke="#cbd5e1" stroke-width="1.6"  marker-end="url(#arrow)"/><path d="M520,222 L560,230" fill="none" stroke="#cbd5e1" stroke-width="1.6"  marker-end="url(#arrow)"/><path d="M750,260 L750,300" fill="none" stroke="#94a3b8" stroke-width="1.6"  marker-end="url(#arrow)"/>
</svg>