<svg xmlns="http://www.w3.org/2000/svg" width="1000" height="660" viewBox="0 0 1000 660">
<defs><marker id="arrow" viewBox="0 0 10 10" refX="9" refY="5" markerWidth="7" markerHeight="7" orient="auto-start-reverse"><path d="M0,0 L10,5 L0,10 z" fill="#94a3b8"/></marker></defs>
<rect width="1000" height="660" fill="#f8fafc"/>
<rect x="0" y="0" width="1000" height="52" fill="#0a1f4d"/>
<text x="26" y="26" font-family="'Malgun Gothic','Apple SD Gothic Neo','Noto Sans KR',sans-serif" font-size="18" font-weight="800" fill="#ffffff">⑥ 의사결정 보조 / CAC·가격 엔진</text>
<text x="26" y="43" font-family="'Malgun Gothic','Apple SD Gothic Neo','Noto Sans KR',sans-serif" font-size="11" fill="#93c5fd">decision-aid/ · cac-from-personas.ts · pricing-range.ts</text>
<text x="980" y="648" font-family="'Cascadia Code','Consolas','D2Coding',monospace" font-size="9" fill="#cbd5e1" text-anchor="end">Market Twin · function-level architecture</text>
<rect x="380" y="80" width="260" height="44" rx="9" fill="#ffffff" stroke="#0a1f4d" stroke-width="2" /><rect x="380" y="80" width="260" height="22" rx="9" fill="#0a1f4d"/><rect x="380" y="91" width="260" height="11" fill="#0a1f4d"/><text x="390" y="95.5" font-family="'Malgun Gothic','Apple SD Gothic Neo','Noto Sans KR',sans-serif" font-size="11.5" font-weight="700" fill="#ffffff">personas[] + 국가 + 카테고리</text><rect x="360" y="160" width="300" height="56" rx="9" fill="#ffffff" stroke="#ea580c" stroke-width="2" /><rect x="360" y="160" width="300" height="22" rx="9" fill="#ea580c"/><rect x="360" y="171" width="300" height="11" fill="#ea580c"/><text x="370" y="175.5" font-family="'Malgun Gothic','Apple SD Gothic Neo','Noto Sans KR',sans-serif" font-size="11.5" font-weight="700" fill="#ffffff">1 · 채널 멘션 추출</text><text x="370" y="198" font-family="'Malgun Gothic','Apple SD Gothic Neo','Noto Sans KR',sans-serif" font-size="10.5" fill="#475569">trustFactors/objections → IG·Shopee·Reddit…</text><text x="370" y="212.5" font-family="'Cascadia Code','Consolas','D2Coding',monospace" font-size="10" fill="#1e293b">빈도 가중(share = count / total)</text><rect x="360" y="248" width="300" height="56" rx="9" fill="#ffffff" stroke="#ea580c" stroke-width="2" /><rect x="360" y="248" width="300" height="22" rx="9" fill="#ea580c"/><rect x="360" y="259" width="300" height="11" fill="#ea580c"/><text x="370" y="263.5" font-family="'Malgun Gothic','Apple SD Gothic Neo','Noto Sans KR',sans-serif" font-size="11.5" font-weight="700" fill="#ffffff">2 · 채널 단가 적용</text><text x="370" y="286" font-family="'Malgun Gothic','Apple SD Gothic Neo','Noto Sans KR',sans-serif" font-size="10.5" fill="#475569">channel-costs.ts × COUNTRY_COST_INDEX</text><text x="370" y="300.5" font-family="'Cascadia Code','Consolas','D2Coding',monospace" font-size="10" fill="#1e293b">CVR·전환단가(국가별)</text><rect x="360" y="336" width="300" height="50" rx="9" fill="#ffffff" stroke="#ea580c" stroke-width="2" /><rect x="360" y="336" width="300" height="22" rx="9" fill="#ea580c"/><rect x="360" y="347" width="300" height="11" fill="#ea580c"/><text x="370" y="351.5" font-family="'Malgun Gothic','Apple SD Gothic Neo','Noto Sans KR',sans-serif" font-size="11.5" font-weight="700" fill="#ffffff">3 · 신규브랜드 배수</text><text x="370" y="374" font-family="'Cascadia Code','Consolas','D2Coding',monospace" font-size="10" fill="#1e293b">newBrandMultiplier (신규 진입 하한)</text><rect x="360" y="418" width="300" height="50" rx="9" fill="#ffffff" stroke="#ea580c" stroke-width="2" /><rect x="360" y="418" width="300" height="22" rx="9" fill="#ea580c"/><rect x="360" y="429" width="300" height="11" fill="#ea580c"/><text x="370" y="433.5" font-family="'Malgun Gothic','Apple SD Gothic Neo','Noto Sans KR',sans-serif" font-size="11.5" font-weight="700" fill="#ffffff">4 · 벤치마크 sanity</text><text x="370" y="456" font-family="'Cascadia Code','Consolas','D2Coding',monospace" font-size="10" fill="#1e293b">cac-benchmarks.ts (카테고리×국가×단계)</text><rect x="360" y="500" width="300" height="44" rx="9" fill="#ffffff" stroke="#0a1f4d" stroke-width="2" /><rect x="360" y="500" width="300" height="22" rx="9" fill="#0a1f4d"/><rect x="360" y="511" width="300" height="11" fill="#0a1f4d"/><text x="370" y="515.5" font-family="'Malgun Gothic','Apple SD Gothic Neo','Noto Sans KR',sans-serif" font-size="11.5" font-weight="700" fill="#ffffff">→ CacRangeResult</text><text x="370" y="538" font-family="'Cascadia Code','Consolas','D2Coding',monospace" font-size="10" fill="#1e293b">low / median / high (+ benchmarkFlag)</text><rect x="710" y="248" width="250" height="80" rx="9" fill="#ffffff" stroke="#ea580c" stroke-width="2" /><rect x="710" y="248" width="250" height="22" rx="9" fill="#ea580c"/><rect x="710" y="259" width="250" height="11" fill="#ea580c"/><text x="720" y="263.5" font-family="'Malgun Gothic','Apple SD Gothic Neo','Noto Sans KR',sans-serif" font-size="11.5" font-weight="700" fill="#ffffff">ƒ computePricingRange()</text><text x="720" y="286" font-family="'Malgun Gothic','Apple SD Gothic Neo','Noto Sans KR',sans-serif" font-size="10.5" fill="#475569">base가 + 페르소나 민감도</text><text x="720" y="300.5" font-family="'Malgun Gothic','Apple SD Gothic Neo','Noto Sans KR',sans-serif" font-size="10.5" fill="#475569">+ 경쟁가 앵커 → min/max</text><text x="720" y="315" font-family="'Cascadia Code','Consolas','D2Coding',monospace" font-size="10" fill="#1e293b">(Stage 3에서 사용)</text><rect x="710" y="360" width="250" height="64" rx="9" fill="#ffffff" stroke="#ea580c" stroke-width="2" /><rect x="710" y="360" width="250" height="22" rx="9" fill="#ea580c"/><rect x="710" y="371" width="250" height="11" fill="#ea580c"/><text x="720" y="375.5" font-family="'Malgun Gothic','Apple SD Gothic Neo','Noto Sans KR',sans-serif" font-size="11.5" font-weight="700" fill="#ffffff">stress-scenarios.ts</text><text x="720" y="398" font-family="'Malgun Gothic','Apple SD Gothic Neo','Noto Sans KR',sans-serif" font-size="10.5" fill="#475569">가격·시장 민감도 시나리오</text><text x="720" y="412.5" font-family="'Cascadia Code','Consolas','D2Coding',monospace" font-size="10" fill="#1e293b">(what-if)</text><path d="M510,124 L510,160" fill="none" stroke="#94a3b8" stroke-width="1.6"  marker-end="url(#arrow)"/><path d="M510,216 L510,248" fill="none" stroke="#94a3b8" stroke-width="1.6"  marker-end="url(#arrow)"/><path d="M510,304 L510,336" fill="none" stroke="#94a3b8" stroke-width="1.6"  marker-end="url(#arrow)"/><path d="M510,386 L510,418" fill="none" stroke="#94a3b8" stroke-width="1.6"  marker-end="url(#arrow)"/><path d="M510,468 L510,500" fill="none" stroke="#94a3b8" stroke-width="1.6"  marker-end="url(#arrow)"/><path d="M640,102 L737.5,102 L737.5,248 L835,248" fill="none" stroke="#94a3b8" stroke-width="1.6" stroke-dasharray="5 4" marker-end="url(#arrow)"/>
</svg>