<svg xmlns="http://www.w3.org/2000/svg" width="980" height="560" viewBox="0 0 980 560">
<defs><marker id="arrow" viewBox="0 0 10 10" refX="9" refY="5" markerWidth="7" markerHeight="7" orient="auto-start-reverse"><path d="M0,0 L10,5 L0,10 z" fill="#94a3b8"/></marker></defs>
<rect width="980" height="560" fill="#f8fafc"/>
<rect x="0" y="0" width="980" height="52" fill="#0a1f4d"/>
<text x="26" y="26" font-family="'Malgun Gothic','Apple SD Gothic Neo','Noto Sans KR',sans-serif" font-size="18" font-weight="800" fill="#ffffff">⑦ 검증 / 백테스트 엔진</text>
<text x="26" y="43" font-family="'Malgun Gothic','Apple SD Gothic Neo','Noto Sans KR',sans-serif" font-size="11" fill="#93c5fd">validation/ · 정답 대비 정확도 측정</text>
<text x="960" y="548" font-family="'Cascadia Code','Consolas','D2Coding',monospace" font-size="9" fill="#cbd5e1" text-anchor="end">Market Twin · function-level architecture</text>
<rect x="60" y="110" width="260" height="70" rx="9" fill="#ffffff" stroke="#16a34a" stroke-width="2" /><rect x="60" y="110" width="260" height="22" rx="9" fill="#16a34a"/><rect x="60" y="121" width="260" height="11" fill="#16a34a"/><text x="70" y="125.5" font-family="'Malgun Gothic','Apple SD Gothic Neo','Noto Sans KR',sans-serif" font-size="11.5" font-weight="700" fill="#ffffff">ƒ loadFixtures()  (loader.ts)</text><text x="70" y="148" font-family="'Malgun Gothic','Apple SD Gothic Neo','Noto Sans KR',sans-serif" font-size="10.5" fill="#475569">Ground-truth 픽스처</text><text x="70" y="162.5" font-family="'Malgun Gothic','Apple SD Gothic Neo','Noto Sans KR',sans-serif" font-size="10.5" fill="#475569">정답 랭킹 + 근거 지표</text><rect x="60" y="230" width="260" height="50" rx="9" fill="#ffffff" stroke="#2563eb" stroke-width="2" /><rect x="60" y="230" width="260" height="22" rx="9" fill="#2563eb"/><rect x="60" y="241" width="260" height="11" fill="#2563eb"/><text x="70" y="245.5" font-family="'Malgun Gothic','Apple SD Gothic Neo','Noto Sans KR',sans-serif" font-size="11.5" font-weight="700" fill="#ffffff">시뮬 결과 (앙상블)</text><text x="70" y="268" font-family="'Malgun Gothic','Apple SD Gothic Neo','Noto Sans KR',sans-serif" font-size="10.5" fill="#475569">예측 랭킹·점수</text><rect x="400" y="150" width="320" height="150" rx="9" fill="#ffffff" stroke="#16a34a" stroke-width="2" /><rect x="400" y="150" width="320" height="22" rx="9" fill="#16a34a"/><rect x="400" y="161" width="320" height="11" fill="#16a34a"/><text x="410" y="165.5" font-family="'Malgun Gothic','Apple SD Gothic Neo','Noto Sans KR',sans-serif" font-size="11.5" font-weight="700" fill="#ffffff">ƒ score(result, truth)  (score.ts)</text><text x="410" y="188" font-family="'Malgun Gothic','Apple SD Gothic Neo','Noto Sans KR',sans-serif" font-size="10.5" fill="#475569">top3Hit — 상위3 적중</text><text x="410" y="202.5" font-family="'Cascadia Code','Consolas','D2Coding',monospace" font-size="10" fill="#1e293b">rankCorrelation — Spearman ρ (stats.ts)</text><text x="410" y="217" font-family="'Malgun Gothic','Apple SD Gothic Neo','Noto Sans KR',sans-serif" font-size="10.5" fill="#475569">rejectRecall — 부적합국 탈락 재현율</text><text x="410" y="231.5" font-family="'Malgun Gothic','Apple SD Gothic Neo','Noto Sans KR',sans-serif" font-size="10.5" fill="#475569">confidenceCalibration — 신뢰도 보정</text><text x="410" y="246" font-family="'Malgun Gothic','Apple SD Gothic Neo','Noto Sans KR',sans-serif" font-size="10.5" fill="#475569">trendMatch — 트렌드 일치</text><rect x="400" y="340" width="320" height="56" rx="9" fill="#ffffff" stroke="#16a34a" stroke-width="2" /><rect x="400" y="340" width="320" height="22" rx="9" fill="#16a34a"/><rect x="400" y="351" width="320" height="11" fill="#16a34a"/><text x="410" y="355.5" font-family="'Malgun Gothic','Apple SD Gothic Neo','Noto Sans KR',sans-serif" font-size="11.5" font-weight="700" fill="#ffffff">ƒ calibration-sync.ts</text><text x="410" y="378" font-family="'Malgun Gothic','Apple SD Gothic Neo','Noto Sans KR',sans-serif" font-size="10.5" fill="#475569">픽스처 기반 가중치 자동 동기화 → 모델 튜닝</text><rect x="760" y="195" width="180" height="60" rx="9" fill="#ffffff" stroke="#0a1f4d" stroke-width="2" /><rect x="760" y="195" width="180" height="22" rx="9" fill="#0a1f4d"/><rect x="760" y="206" width="180" height="11" fill="#0a1f4d"/><text x="770" y="210.5" font-family="'Malgun Gothic','Apple SD Gothic Neo','Noto Sans KR',sans-serif" font-size="11.5" font-weight="700" fill="#ffffff">→ 정확도 리포트</text><text x="770" y="233" font-family="'Malgun Gothic','Apple SD Gothic Neo','Noto Sans KR',sans-serif" font-size="10.5" fill="#475569">validation-pdf</text><text x="770" y="247.5" font-family="'Malgun Gothic','Apple SD Gothic Neo','Noto Sans KR',sans-serif" font-size="10.5" fill="#475569">교차검증 근거</text><path d="M320,145 L400,225" fill="none" stroke="#94a3b8" stroke-width="1.6"  marker-end="url(#arrow)"/><rect x="350" y="177" width="20" height="15" rx="3" fill="#ffffff" opacity="0.92"/><text x="360" y="188" font-family="'Malgun Gothic','Apple SD Gothic Neo','Noto Sans KR',sans-serif" font-size="9.5" fill="#64748b" text-anchor="middle">정답</text><path d="M320,255 L400,225" fill="none" stroke="#94a3b8" stroke-width="1.6"  marker-end="url(#arrow)"/><rect x="350" y="232" width="20" height="15" rx="3" fill="#ffffff" opacity="0.92"/><text x="360" y="243" font-family="'Malgun Gothic','Apple SD Gothic Neo','Noto Sans KR',sans-serif" font-size="9.5" fill="#64748b" text-anchor="middle">예측</text><path d="M560,300 L560,340" fill="none" stroke="#94a3b8" stroke-width="1.6"  marker-end="url(#arrow)"/><path d="M720,225 L760,225" fill="none" stroke="#94a3b8" stroke-width="1.6"  marker-end="url(#arrow)"/><rect x="60" y="330" width="260" height="34" rx="6" fill="#f59e0b11" stroke="#f59e0b" stroke-width="1" stroke-dasharray="3 3"/><text x="69" y="347" font-family="'Malgun Gothic','Apple SD Gothic Neo','Noto Sans KR',sans-serif" font-size="9.8" fill="#7c5b09">ⓘ 오프라인 엔진 — 런타임 시뮬과 분리.</text><text x="69" y="360" font-family="'Malgun Gothic','Apple SD Gothic Neo','Noto Sans KR',sans-serif" font-size="9.8" fill="#7c5b09">모델·가중치 신뢰성의 근거(BD팩에 사용).</text>
</svg>