<svg xmlns="http://www.w3.org/2000/svg" width="960" height="560" viewBox="0 0 960 560">
<defs><marker id="arrow" viewBox="0 0 10 10" refX="9" refY="5" markerWidth="7" markerHeight="7" orient="auto-start-reverse"><path d="M0,0 L10,5 L0,10 z" fill="#94a3b8"/></marker></defs>
<rect width="960" height="560" fill="#f8fafc"/>
<rect x="0" y="0" width="960" height="52" fill="#0a1f4d"/>
<text x="26" y="26" font-family="'Malgun Gothic','Apple SD Gothic Neo','Noto Sans KR',sans-serif" font-size="18" font-weight="800" fill="#ffffff">⑧ 품질 감사 엔진</text>
<text x="26" y="43" font-family="'Malgun Gothic','Apple SD Gothic Neo','Noto Sans KR',sans-serif" font-size="11" fill="#93c5fd">quality/audit.ts · 매 시뮬 후 가드레일</text>
<text x="940" y="548" font-family="'Cascadia Code','Consolas','D2Coding',monospace" font-size="9" fill="#cbd5e1" text-anchor="end">Market Twin · function-level architecture</text>
<rect x="360" y="80" width="240" height="40" rx="9" fill="#ffffff" stroke="#0a1f4d" stroke-width="2" /><rect x="360" y="80" width="240" height="22" rx="9" fill="#0a1f4d"/><rect x="360" y="91" width="240" height="11" fill="#0a1f4d"/><text x="370" y="95.5" font-family="'Malgun Gothic','Apple SD Gothic Neo','Noto Sans KR',sans-serif" font-size="11.5" font-weight="700" fill="#ffffff">SimulationResult</text><rect x="330" y="150" width="300" height="50" rx="9" fill="#ffffff" stroke="#dc2626" stroke-width="2" /><rect x="330" y="150" width="300" height="22" rx="9" fill="#dc2626"/><rect x="330" y="161" width="300" height="11" fill="#dc2626"/><text x="340" y="165.5" font-family="'Malgun Gothic','Apple SD Gothic Neo','Noto Sans KR',sans-serif" font-size="11.5" font-weight="700" fill="#ffffff">ƒ auditQuality(result)</text><text x="340" y="188" font-family="'Cascadia Code','Consolas','D2Coding',monospace" font-size="10" fill="#1e293b">quality/audit.ts — 매 sim 후(비치명)</text><rect x="40" y="240" width="290" height="62" rx="9" fill="#ffffff" stroke="#dc2626" stroke-width="2" /><rect x="40" y="240" width="290" height="22" rx="9" fill="#dc2626"/><rect x="40" y="251" width="290" height="11" fill="#dc2626"/><text x="50" y="255.5" font-family="'Malgun Gothic','Apple SD Gothic Neo','Noto Sans KR',sans-serif" font-size="11.5" font-weight="700" fill="#ffffff">voice-slip</text><text x="50" y="278" font-family="'Malgun Gothic','Apple SD Gothic Neo','Noto Sans KR',sans-serif" font-size="10.5" fill="#475569">비원어 혼입률</text><rect x="350" y="240" width="290" height="62" rx="9" fill="#ffffff" stroke="#dc2626" stroke-width="2" /><rect x="350" y="240" width="290" height="22" rx="9" fill="#dc2626"/><rect x="350" y="251" width="290" height="11" fill="#dc2626"/><text x="360" y="255.5" font-family="'Malgun Gothic','Apple SD Gothic Neo','Noto Sans KR',sans-serif" font-size="11.5" font-weight="700" fill="#ffffff">channel-mismatch</text><text x="360" y="278" font-family="'Malgun Gothic','Apple SD Gothic Neo','Noto Sans KR',sans-serif" font-size="10.5" fill="#475569">마켓플레이스명 오류</text><rect x="660" y="240" width="290" height="62" rx="9" fill="#ffffff" stroke="#dc2626" stroke-width="2" /><rect x="660" y="240" width="290" height="22" rx="9" fill="#dc2626"/><rect x="660" y="251" width="290" height="11" fill="#dc2626"/><text x="670" y="255.5" font-family="'Malgun Gothic','Apple SD Gothic Neo','Noto Sans KR',sans-serif" font-size="11.5" font-weight="700" fill="#ffffff">persona count</text><text x="670" y="278" font-family="'Malgun Gothic','Apple SD Gothic Neo','Noto Sans KR',sans-serif" font-size="10.5" fill="#475569">목표 대비 수</text><rect x="40" y="326" width="290" height="62" rx="9" fill="#ffffff" stroke="#dc2626" stroke-width="2" /><rect x="40" y="326" width="290" height="22" rx="9" fill="#dc2626"/><rect x="40" y="337" width="290" height="11" fill="#dc2626"/><text x="50" y="341.5" font-family="'Malgun Gothic','Apple SD Gothic Neo','Noto Sans KR',sans-serif" font-size="11.5" font-weight="700" fill="#ffffff">pricing sanity</text><text x="50" y="364" font-family="'Malgun Gothic','Apple SD Gothic Neo','Noto Sans KR',sans-serif" font-size="10.5" fill="#475569">가격 타당 범위</text><rect x="350" y="326" width="290" height="62" rx="9" fill="#ffffff" stroke="#dc2626" stroke-width="2" /><rect x="350" y="326" width="290" height="22" rx="9" fill="#dc2626"/><rect x="350" y="337" width="290" height="11" fill="#dc2626"/><text x="360" y="341.5" font-family="'Malgun Gothic','Apple SD Gothic Neo','Noto Sans KR',sans-serif" font-size="11.5" font-weight="700" fill="#ffffff">country dist</text><text x="360" y="364" font-family="'Malgun Gothic','Apple SD Gothic Neo','Noto Sans KR',sans-serif" font-size="10.5" fill="#475569">국가 분포 균형</text><rect x="660" y="326" width="290" height="62" rx="9" fill="#ffffff" stroke="#dc2626" stroke-width="2" /><rect x="660" y="326" width="290" height="22" rx="9" fill="#dc2626"/><rect x="660" y="337" width="290" height="11" fill="#dc2626"/><text x="670" y="341.5" font-family="'Malgun Gothic','Apple SD Gothic Neo','Noto Sans KR',sans-serif" font-size="11.5" font-weight="700" fill="#ffffff">dominance</text><text x="670" y="364" font-family="'Malgun Gothic','Apple SD Gothic Neo','Noto Sans KR',sans-serif" font-size="10.5" fill="#475569">단일 반론 &gt; 50%?</text><rect x="330" y="430" width="300" height="60" rx="9" fill="#ffffff" stroke="#0a1f4d" stroke-width="2" /><rect x="330" y="430" width="300" height="22" rx="9" fill="#0a1f4d"/><rect x="330" y="441" width="300" height="11" fill="#0a1f4d"/><text x="340" y="445.5" font-family="'Malgun Gothic','Apple SD Gothic Neo','Noto Sans KR',sans-serif" font-size="11.5" font-weight="700" fill="#ffffff">→ QualityAuditResult</text><text x="340" y="468" font-family="'Malgun Gothic','Apple SD Gothic Neo','Noto Sans KR',sans-serif" font-size="10.5" fill="#475569">confidenceScore 0~100 · quarantined · warnings[]</text><text x="340" y="482.5" font-family="'Malgun Gothic','Apple SD Gothic Neo','Noto Sans KR',sans-serif" font-size="10.5" fill="#475569">→ simulation_quality 테이블</text><path d="M480,120 L480,150" fill="none" stroke="#94a3b8" stroke-width="1.6"  marker-end="url(#arrow)"/><path d="M480,200 L480,220 L185,220 L185,240" fill="none" stroke="#fca5a5" stroke-width="1.6"  marker-end="url(#arrow)"/><path d="M480,200 L480,220 L495,220 L495,240" fill="none" stroke="#fca5a5" stroke-width="1.6"  marker-end="url(#arrow)"/><path d="M480,200 L480,220 L805,220 L805,240" fill="none" stroke="#fca5a5" stroke-width="1.6"  marker-end="url(#arrow)"/><path d="M480,200 L480,263 L185,263 L185,326" fill="none" stroke="#fca5a5" stroke-width="1.6"  marker-end="url(#arrow)"/><path d="M480,200 L480,263 L495,263 L495,326" fill="none" stroke="#fca5a5" stroke-width="1.6"  marker-end="url(#arrow)"/><path d="M480,200 L480,263 L805,263 L805,326" fill="none" stroke="#fca5a5" stroke-width="1.6"  marker-end="url(#arrow)"/><path d="M185,302 L480,430" fill="none" stroke="#fca5a5" stroke-width="1.6"  marker-end="url(#arrow)"/><path d="M495,302 L480,430" fill="none" stroke="#fca5a5" stroke-width="1.6"  marker-end="url(#arrow)"/><path d="M805,302 L480,430" fill="none" stroke="#fca5a5" stroke-width="1.6"  marker-end="url(#arrow)"/><path d="M185,388 L480,430" fill="none" stroke="#fca5a5" stroke-width="1.6"  marker-end="url(#arrow)"/><path d="M495,388 L480,430" fill="none" stroke="#fca5a5" stroke-width="1.6"  marker-end="url(#arrow)"/><path d="M805,388 L480,430" fill="none" stroke="#fca5a5" stroke-width="1.6"  marker-end="url(#arrow)"/>
</svg>