<svg xmlns="http://www.w3.org/2000/svg" width="960" height="540" viewBox="0 0 960 540">
<defs><marker id="arrow" viewBox="0 0 10 10" refX="9" refY="5" markerWidth="7" markerHeight="7" orient="auto-start-reverse"><path d="M0,0 L10,5 L0,10 z" fill="#94a3b8"/></marker></defs>
<rect width="960" height="540" fill="#f8fafc"/>
<rect x="0" y="0" width="960" height="52" fill="#0a1f4d"/>
<text x="26" y="26" font-family="'Malgun Gothic','Apple SD Gothic Neo','Noto Sans KR',sans-serif" font-size="18" font-weight="800" fill="#ffffff">⑨ 리포트 / PDF 엔진</text>
<text x="26" y="43" font-family="'Malgun Gothic','Apple SD Gothic Neo','Noto Sans KR',sans-serif" font-size="11" fill="#93c5fd">src/lib/report/ · React-PDF 렌더</text>
<text x="940" y="528" font-family="'Cascadia Code','Consolas','D2Coding',monospace" font-size="9" fill="#cbd5e1" text-anchor="end">Market Twin · function-level architecture</text>
<rect x="360" y="90" width="240" height="44" rx="9" fill="#ffffff" stroke="#0a1f4d" stroke-width="2" /><rect x="360" y="90" width="240" height="22" rx="9" fill="#0a1f4d"/><rect x="360" y="101" width="240" height="11" fill="#0a1f4d"/><text x="370" y="105.5" font-family="'Malgun Gothic','Apple SD Gothic Neo','Noto Sans KR',sans-serif" font-size="11.5" font-weight="700" fill="#ffffff">앙상블/시뮬 결과</text><text x="370" y="128" font-family="'Malgun Gothic','Apple SD Gothic Neo','Noto Sans KR',sans-serif" font-size="10.5" fill="#475569">aggregate_result</text><rect x="120" y="200" width="320" height="80" rx="9" fill="#ffffff" stroke="#475569" stroke-width="2" /><rect x="120" y="200" width="320" height="22" rx="9" fill="#475569"/><rect x="120" y="211" width="320" height="11" fill="#475569"/><text x="130" y="215.5" font-family="'Malgun Gothic','Apple SD Gothic Neo','Noto Sans KR',sans-serif" font-size="11.5" font-weight="700" fill="#ffffff">ensemble-pdf.tsx</text><text x="130" y="238" font-family="'Cascadia Code','Consolas','D2Coding',monospace" font-size="10" fill="#1e293b">종합 리포트(React-PDF)</text><text x="130" y="252.5" font-family="'Malgun Gothic','Apple SD Gothic Neo','Noto Sans KR',sans-serif" font-size="10.5" fill="#475569">국가·페르소나·가격·내러티브</text><rect x="520" y="200" width="320" height="80" rx="9" fill="#ffffff" stroke="#475569" stroke-width="2" /><rect x="520" y="200" width="320" height="22" rx="9" fill="#475569"/><rect x="520" y="211" width="320" height="11" fill="#475569"/><text x="530" y="215.5" font-family="'Malgun Gothic','Apple SD Gothic Neo','Noto Sans KR',sans-serif" font-size="11.5" font-weight="700" fill="#ffffff">validation-pdf.tsx</text><text x="530" y="238" font-family="'Malgun Gothic','Apple SD Gothic Neo','Noto Sans KR',sans-serif" font-size="10.5" fill="#475569">교차검증 리포트</text><text x="530" y="252.5" font-family="'Malgun Gothic','Apple SD Gothic Neo','Noto Sans KR',sans-serif" font-size="10.5" fill="#475569">정확도 근거·방법론</text><rect x="280" y="340" width="400" height="80" rx="9" fill="#ffffff" stroke="#475569" stroke-width="2" /><rect x="280" y="340" width="400" height="22" rx="9" fill="#475569"/><rect x="280" y="351" width="400" height="11" fill="#475569"/><text x="290" y="355.5" font-family="'Malgun Gothic','Apple SD Gothic Neo','Noto Sans KR',sans-serif" font-size="11.5" font-weight="700" fill="#ffffff">티어별 구성</text><text x="290" y="378" font-family="'Cascadia Code','Consolas','D2Coding',monospace" font-size="10" fill="#1e293b">Executive (임원 ~5p) · Detailed (상세)</text><text x="290" y="392.5" font-family="'Cascadia Code','Consolas','D2Coding',monospace" font-size="10" fill="#1e293b">Hypothesis (초기검증)</text><text x="290" y="407" font-family="'Malgun Gothic','Apple SD Gothic Neo','Noto Sans KR',sans-serif" font-size="10.5" fill="#475569">PDF 다운로드 / 공유 링크</text><path d="M480,134 L480,167 L280,167 L280,200" fill="none" stroke="#94a3b8" stroke-width="1.6"  marker-end="url(#arrow)"/><path d="M480,134 L480,167 L680,167 L680,200" fill="none" stroke="#94a3b8" stroke-width="1.6"  marker-end="url(#arrow)"/><path d="M280,280 L280,310 L480,310 L480,340" fill="none" stroke="#94a3b8" stroke-width="1.6"  marker-end="url(#arrow)"/><path d="M680,280 L680,310 L480,310 L480,340" fill="none" stroke="#94a3b8" stroke-width="1.6"  marker-end="url(#arrow)"/>
</svg>